mastitorrents.com
  
http://mastitorrents.com/forums/index.php
  
http://thepiratebay.se/user/HDvideos/0/7

Break Free Bipasha Basu (2012) Hindi DVDRip XviD

Format                                   : AVI
Format/Info                              : Audio Video Interleave
File size                                : 598 MiB
Duration                                 : 1h 4mn
Overall bit rate                         : 1 289 Kbps
Codec ID                                 : XVID
Codec ID/Hint                            : XviD
Duration                                 : 1h 4mn
Bit rate                                 : 1 152 Kbps
Width                                    : 688 pixels
Height                                   : 368 pixels
Display aspect ratio                     : 1.870
Frame rate                               : 29.970 fps
Color space                              : YUV
Chroma subsampling                       : 4:2:0
Bit depth                                : 8 bits
Scan type                                : Progressive
Compression mode                         : Lossy
Bits/(Pixel*Frame)                       : 0.152
Stream size                              : 535 MiB (89%)
Writing library                          : XviD 1.2.1 (UTC 2008-12-04)

Format                                   : AC-3
Format/Info                              : Audio Coding 3
Mode extension                           : CM (complete main)
Format settings, Endianness              : Big
Codec ID                                 : 2000
Duration                                 : 1h 4mn
Bit rate mode                            : Constant
Bit rate                                 : 128 Kbps
Channel(s)                               : 6 channels
Channel positions                        : Front: L C R, Side: L R, LFE
Sampling rate                            : 48.0 KHz
Bit depth                                : 16 bits
Compression mode                         : Lossy
Stream size                              : 59.4 MiB (10%)
Alignment                                : Aligned on interleaves
Interleave, duration                     : 64 ms (1.92 video frames)
Interleave, preload duration             : 192 ms
Title                                    : VTS_02_1 T81 3_2ch 448Kbps DELAY 0ms_new

Screens: 
http://foreverbilgisayar.com/dpi/image.php?id=579E_50DA095B&jpg 
http://foreverbilgisayar.com/dpi/image.php?id=0397_50DA6DE7&jpg 
http://foreverbilgisayar.com/dpi/image.php?id=4560_50DA6DE7&jpg 
http://foreverbilgisayar.com/dpi/image.php?id=0C80_50DA6DE7&jpg 
http://foreverbilgisayar.com/dpi/image.php?id=B8ED_50DA6DE7&jpg 
http://foreverbilgisayar.com/dpi/image.php?id=C8AB_50DA6DE7&jpg 
http://foreverbilgisayar.com/dpi/image.php?id=E470_50DA6DE7&jpg 
http://foreverbilgisayar.com/dpi/image.php?id=7910_50DA6DE7&jpg 
http://foreverbilgisayar.com/dpi/image.php?id=95B4_50DA6DE7&jpg 
http://foreverbilgisayar.com/dpi/image.php?id=A7DB_50DA6DE7&jpg